<svg width="128" height="128" fill="none" xmlns="http://www.w3.org/2000/svg"><g clip-path="url(#clip0)" fill-rule="evenodd" clip-rule="evenodd"><path d="M63.5 7.514c-32.347 0-57.422 23.694-57.422 55.699 0 16.74 6.86 31.206 18.034 41.198a4.586 4.586 0 011.542 3.273l.313 10.216c.1 3.257 3.466 5.378 6.447 4.061l11.397-5.031a4.58 4.58 0 013.067-.225c5.237 1.44 10.812 2.207 16.622 2.207 32.347 0 57.422-23.695 57.422-55.7 0-32.004-25.075-55.698-57.422-55.698" fill="url(#paint0_radial)"/><path d="M29.018 79.502L45.886 52.74c2.683-4.257 8.429-5.317 12.455-2.298l13.415 10.062a3.445 3.445 0 004.15-.012l18.12-13.75c2.417-1.836 5.574 1.058 3.956 3.626L81.114 77.13c-2.683 4.257-8.429 5.318-12.454 2.298L55.244 69.366a3.445 3.445 0 00-4.15.012l-18.12 13.75c-2.418 1.836-5.574-1.058-3.956-3.626" fill="#fff"/></g><defs><radialGradient id="paint0_radial" cx="0" cy="0" r="1" gradientUnits="userSpaceOnUse" gradientTransform="rotate(-57.092 125.99 34.968) scale(125.133)"><stop stop-color="#09F"/><stop offset=".61" stop-color="#A033FF"/><stop offset=".935" stop-color="#FF5280"/><stop offset="1" stop-color="#FF7061"/></radialGradient><clipPath id="clip0"><path fill="#fff" d="M0 0h128v128H0z"/></clipPath></defs></svg>
